<svg xmlns="http://www.w3.org/2000/svg" width="100" height="50"><path fill="none" stroke="#000" stroke-width="2" d="M78.3 25H95M30.4 15H5m26.4 20H5"/><g fill-rule="evenodd"><path d="M24.3 42c-1.6 2.6-2.3 3-2.3 3h-3.7l2-2.4S26 35.6 26 25c0-10.6-5.7-17.6-5.7-17.6l-2-2.4H22c.8 1 1.4 1.7 2.2 3a32.9 32.9 0 0 1 0 34z"/><path d="m24 5 2 2.4s5.8 7 5.8 17.6S26 42.6 26 42.6L24 45h17.1c2.5 0 7.7 0 13.7-2.4s12.5-7.3 17.7-16.9l-1.3-.7 1.3-.7A33.7 33.7 0 0 0 41.3 5H24zm6 3h11.3c4.6 0 18.2-.1 28 17a32.2 32.2 0 0 1-15.8 14.8C48.1 42 43.7 42 41.2 42H30a33 33 0 0 0 0-34z"/></g><path fill="none" stroke="#000" stroke-width="3" d="M79 25a4 4 0 1 1-8 0 4 4 0 1 1 8 0z"/></svg>