<svg xmlns="http://www.w3.org/2000/svg" width="1942" height="2427"><path d="M146 2427c-4-116 5-223 44-286s29-151 24-224 20-106 20-165 5-150 116-213 204-126 413-190c-34-43-63-92-88-179-19-49-14-44-48-68s-68-73-97-146 5-43-20-92 5-48 15-44q-24-38-29-72c0-44 5-64-5-83s-29-63-5-146 58-82 78-106-20-10 14-68 97-93 151-117 63-43 121-53 49-34 136-15 63 15 107 39 116 87 179 175 44 145 78 199 15 92 15 121c5-19 14-29 24-34s34-19 49 58 9 151 0 175-34 88-54 107-34 29-68 29c5 49 5 87 0 136 92 126 180 180 340 282s189 111 286 179v801Z"/></svg>