<?xml version="1.0" standalone="no"?><!DOCTYPE svg PUBLIC "-//W3C//DTD SVG 1.1//EN" "http://www.w3.org/Graphics/SVG/1.1/DTD/svg11.dtd"><svg t="1746020119104" class="icon" viewBox="0 0 1024 1024" version="1.1" xmlns="http://www.w3.org/2000/svg" p-id="4036" xmlns:xlink="http://www.w3.org/1999/xlink" width="200" height="200"><path d="M853.333333 955.733333H597.333333c-66.030933 0-102.4-36.369067-102.4-102.4v-153.6h-153.6a17.066667 17.066667 0 1 1 0-34.133333h68.266667v-51.2H170.666667c-66.030933 0-102.4-36.369067-102.4-102.4V170.666667c0-66.030933 36.369067-102.4 102.4-102.4h597.333333c66.030933 0 102.4 36.369067 102.4 102.4v154.4704c55.1936 5.888 85.333333 41.4208 85.333333 101.5296v426.666666c0 66.030933-36.369067 102.4-102.4 102.4z m-323.208533-85.333333c4.829867 35.242667 26.112 51.2 67.208533 51.2h256c41.079467 0 62.3616-15.957333 67.208534-51.2H530.1248zM529.066667 836.266667h392.533333V443.733333H529.066667v392.533334z m-85.333334-170.666667h51.2v-51.2h-51.2v51.2z m-17.066666-85.333333h68.266666v-51.2H103.4752c4.829867 35.242667 26.112 51.2 67.191467 51.2h256zM102.4 494.933333h392.533333v-68.266666c0-66.030933 36.369067-102.4 102.4-102.4h238.933334v-153.6c0-47.223467-21.0432-68.266667-68.266667-68.266667H170.666667c-47.223467 0-68.266667 21.0432-68.266667 68.266667v324.266666z m427.7248-85.333333h390.4c-4.829867-35.242667-26.112-51.2-67.208533-51.2H597.333333c-41.079467 0-62.3616 15.957333-67.208533 51.2z" p-id="4037"></path></svg>