<?xml version="1.0" standalone="no"?><!DOCTYPE svg PUBLIC "-//W3C//DTD SVG 1.1//EN" "http://www.w3.org/Graphics/SVG/1.1/DTD/svg11.dtd"><svg t="1745910675709" class="icon" viewBox="0 0 1091 1024" version="1.1" xmlns="http://www.w3.org/2000/svg" p-id="8034" xmlns:xlink="http://www.w3.org/1999/xlink" width="213.0859375" height="200"><path d="M1090.935976 662.051333a39.286905 39.286905 0 0 0-32.351723-45.349737l-162.363027-26.69391V419.419645l159.515428-42.869771a39.037662 39.037662 0 0 0 27.609877-47.667696 38.769726 38.769726 0 0 0-47.480764-27.553798l-150.548915 40.209104a350.497765 350.497765 0 0 0-183.816606-224.711127V38.944196a38.944196 38.944196 0 1 0-77.888392 0v47.904477a343.095252 343.095252 0 0 0-155.776784 0V38.944196a38.944196 38.944196 0 1 0-77.888393 0v77.888392a350.497765 350.497765 0 0 0-183.430279 226.655221L55.643467 301.633703a37.243114 37.243114 0 0 0-46.184701 27.248475 39.878857 39.878857 0 0 0 28.326451 47.723776l157.44048 42.826153v170.569348L33.186686 616.701596a39.623383 39.623383 0 0 0-32.681969 45.355968 39.08128 39.08128 0 0 0 45.112957 32.357954l149.608023-25.347998a346.603345 346.603345 0 0 0 31.934241 139.033895l-148.797984 149.122a39.14359 39.14359 0 0 0 0.031155 55.331914 39.056355 39.056355 0 0 0 55.269603-0.031155l135.556958-135.887205a350.497765 350.497765 0 0 0 553.007584 0l135.556958 135.887205a39.056355 39.056355 0 0 0 55.269603 0.031155 39.106204 39.106204 0 0 0 0-55.300759l-149.159387-149.159386a346.603345 346.603345 0 0 0 32.326798-139.027664l149.153156 25.323074a39.511224 39.511224 0 0 0 45.567825-32.33303zM506.773035 931.54517c-133.99919-19.341246-233.503169-134.098887-233.665177-269.493837v-233.665176h233.665177v503.159013zM284.411022 350.497765c34.37059-115.648685 140.666436-194.957761 261.318671-194.957761 120.646004 0 226.948081 79.309076 261.31244 194.957761H284.404791z m533.928043 311.553568c-0.162008 135.39495-99.659756 250.152591-233.665176 269.493837V428.386157h233.665176v233.665176z" fill="#8B8B93" p-id="8035"></path></svg>