<?xml version="1.0" standalone="no"?><!DOCTYPE svg PUBLIC "-//W3C//DTD SVG 1.1//EN" "http://www.w3.org/Graphics/SVG/1.1/DTD/svg11.dtd"><svg t="1732716413877" class="icon" viewBox="0 0 1025 1024" version="1.1" xmlns="http://www.w3.org/2000/svg" p-id="8419" data-darkreader-inline-fill="" xmlns:xlink="http://www.w3.org/1999/xlink" width="200.1953125" height="200"><path d="M1020.695893 571.733333a62.592 62.592 0 0 1-61.866666 55.466667h-8.533334a68.821333 68.821333 0 0 0-45.653333 120.021333 63.36 63.36 0 0 1 6.826667 85.802667 505.216 505.216 0 0 1-83.2 81.877333 62.762667 62.762667 0 0 1-38.4 13.354667 63.701333 63.701333 0 0 1-46.506667-20.352 73.344 73.344 0 0 0-53.333333-22.229333 64.341333 64.341333 0 0 0-23.893334 4.48 69.717333 69.717333 0 0 0-42.666666 66.56 62.976 62.976 0 0 1-55.893334 64.597333 510.122667 510.122667 0 0 1-115.2-0.298667 62.421333 62.421333 0 0 1-55.04-66.005333 69.802667 69.802667 0 0 0-42.24-67.626667 64 64 0 0 0-24.32-4.650666 73.642667 73.642667 0 0 0-53.333333 22.186666 63.104 63.104 0 0 1-86.186667 6.826667 505.728 505.728 0 0 1-80.64-82.048 62.250667 62.250667 0 0 1 6.826667-84.906667 69.930667 69.930667 0 0 0 17.493333-77.184 68.266667 68.266667 0 0 0-61.866666-42.666666h-2.56a67.072 67.072 0 0 1-66.986667-55.68 483.2 483.2 0 0 1 0-116.437334 61.952 61.952 0 0 1 64-55.466666 73.856 73.856 0 0 0 69.546667-42.069334 69.290667 69.290667 0 0 0-17.493334-77.781333 63.317333 63.317333 0 0 1-6.826666-85.76 513.152 513.152 0 0 1 82.773333-81.92 64.256 64.256 0 0 1 38.826667-13.354667 63.488 63.488 0 0 1 46.506666 20.48 73.728 73.728 0 0 0 53.333334 22.058667 65.194667 65.194667 0 0 0 23.893333-4.266667 69.802667 69.802667 0 0 0 42.666667-66.688A62.933333 62.933333 0 0 1 456.64256 3.541333a512.426667 512.426667 0 0 1 115.2 0.298667 62.464 62.464 0 0 1 55.04 65.962667 69.290667 69.290667 0 0 0 42.24 67.712 64.938667 64.938667 0 0 0 24.32 4.608 73.770667 73.770667 0 0 0 53.333333-22.144 62.805333 62.805333 0 0 1 85.76-6.912 501.205333 501.205333 0 0 1 81.066667 81.962666 62.506667 62.506667 0 0 1-6.826667 85.333334 68.778667 68.778667 0 0 0 47.36 119.765333 66.986667 66.986667 0 0 1 66.56 55.466667 506.410667 506.410667 0 0 1 0 116.138666z m-84.48-99.114666A137.216 137.216 0 0 1 840.64256 240.213333a410.410667 410.410667 0 0 0-55.466667-56.106666 143.018667 143.018667 0 0 1-97.706666 38.4 130.602667 130.602667 0 0 1-50.773334-9.941334 137.685333 137.685333 0 0 1-84.053333-125.738666 427.946667 427.946667 0 0 0-78.933333 0 128.896 128.896 0 0 1-88.32 115.2 124.416 124.416 0 0 1-46.933334 17.792 143.018667 143.018667 0 0 1-97.28-38.016 413.866667 413.866667 0 0 0-57.173333 56.192 137.642667 137.642667 0 0 1 28.16 148.650666 140.8 140.8 0 0 1-125.44 83.882667 457.685333 457.685333 0 0 0-0.426667 80.213333 137.002667 137.002667 0 0 1 95.573334 232.490667 462.933333 462.933333 0 0 0 55.466666 56.149333 144.469333 144.469333 0 0 1 97.706667-38.4 131.2 131.2 0 0 1 51.2 9.984 137.386667 137.386667 0 0 1 84.053333 125.653334 424.064 424.064 0 0 0 78.933334 0 138.538667 138.538667 0 0 1 84.906666-123.434667 132.266667 132.266667 0 0 1 49.92-9.557333 143.317333 143.317333 0 0 1 97.706667 38.058666 449.834667 449.834667 0 0 0 57.173333-56.192 136.832 136.832 0 0 1-28.16-148.650666 138.837333 138.837333 0 0 1 125.44-84.224 417.194667 417.194667 0 0 0 0-80.170667zM512.109227 682.666667a170.922667 170.922667 0 1 1 170.24-170.922667A170.666667 170.666667 0 0 1 512.109227 682.666667z m0-255.658667a85.333333 85.333333 0 1 0 85.76 85.333333A85.333333 85.333333 0 0 0 512.109227 426.965333z" p-id="8420"></path></svg>