<svg xmlns="http://www.w3.org/2000/svg" viewBox="0 0 50 50" width="200" height="200"><defs><linearGradient id="a" x1="100%" y1="100%" x2="0" y2="0"><stop offset="50%" stop-color="#162b35"/><stop offset="100%" stop-color="#324757"/></linearGradient><linearGradient id="b" x1="100%" y1="100%" x2="0" y2="0"><stop offset="0" stop-color="#139daa"/><stop offset="100%" stop-color="#20c1cf"/></linearGradient><linearGradient id="c" x1="100%" y1="100%" x2="0" y2="0"><stop offset="0" stop-color="#37d1de"/> <stop offset="100%" stop-color="#2cd0da"/></linearGradient></defs><style>.a{stroke:#0d1f2a;stroke-width: 1}.b{fill: url(#a)}</style><path d="m17 8 5-5c2-2 4-2 6 0l14 14c3 3 3 3 3 6l0 4c0 3 0 3-3 6z" class="a b"/><path d="m33 42-5 5c-2 2-4 2-6 0L8 33c-3-3-3-3-3-6l0-4c0-3 0-3 3-6z" class="a b"/><path d="m8 17 9-9 8 8-9 9z" class="a" fill="url(#c)"/><path d="m33 42-8-8 9-9 8 8z" class="a" fill="url(#b)"/></svg>