<?xml version="1.0" standalone="no"?><!DOCTYPE svg PUBLIC "-//W3C//DTD SVG 1.1//EN" "http://www.w3.org/Graphics/SVG/1.1/DTD/svg11.dtd"><svg t="1732716345306" class="icon" viewBox="0 0 1024 1024" version="1.1" xmlns="http://www.w3.org/2000/svg" p-id="6418" id="mx_n_1732716345307" data-darkreader-inline-fill="" xmlns:xlink="http://www.w3.org/1999/xlink" width="200" height="200"><path d="M704 384a32 32 0 0 1 28.64 17.728l224 448a32 32 0 1 1-57.28 28.608L704 487.584l-195.36 390.752a32 32 0 1 1-57.28-28.608l224-448A32 32 0 0 1 704 384z" fill="#808080" p-id="6419" data-darkreader-inline-fill="" style="--darkreader-inline-fill: #60686c;"></path><path d="M512 736a32 32 0 0 1 32-32h320a32 32 0 1 1 0 64H544a32 32 0 0 1-32-32zM352 96a32 32 0 0 1 32 32v96a32 32 0 1 1-64 0V128a32 32 0 0 1 32-32z" fill="#808080" p-id="6420" data-darkreader-inline-fill="" style="--darkreader-inline-fill: #60686c;"></path><path d="M64 224a32 32 0 0 1 32-32h512a32 32 0 1 1 0 64H96a32 32 0 0 1-32-32z" fill="#808080" p-id="6421" data-darkreader-inline-fill="" style="--darkreader-inline-fill: #60686c;"></path><path d="M480 192a32 32 0 0 1 32 32A416 416 0 0 1 96 640a32 32 0 1 1 0-64A352 352 0 0 0 448 224a32 32 0 0 1 32-32z" fill="#808080" p-id="6422" data-darkreader-inline-fill="" style="--darkreader-inline-fill: #60686c;"></path><path d="M235.2 321.856a32 32 0 0 1 40.832 19.488 352.16 352.16 0 0 0 331.936 234.56 32 32 0 1 1 0 64 416.16 416.16 0 0 1-392.256-277.184 32 32 0 0 1 19.456-40.864z" fill="#808080" p-id="6423" data-darkreader-inline-fill="" style="--darkreader-inline-fill: #60686c;"></path></svg>